<svg width="634" height="92" viewBox="0 0 634 92" fill="none" xmlns="http://www.w3.org/2000/svg">
<path d="M523.879 69.8311C523.27 69.8311 522.787 69.6522 522.429 69.2943C522.107 68.9007 521.946 68.3639 521.946 67.684V30.7007C521.946 30.0208 522.107 29.5019 522.429 29.144C522.787 28.7504 523.27 28.5536 523.879 28.5536C524.487 28.5536 524.97 28.7504 525.328 29.144C525.686 29.5019 525.865 30.0208 525.865 30.7007L525.918 47.9309C528.924 44.2809 532.771 42.4559 537.459 42.4559C540.357 42.4559 542.88 43.0106 545.027 44.1199C547.174 45.2292 548.82 46.8216 549.966 48.8971C551.146 50.9368 551.737 53.3523 551.737 56.1435C551.737 60.5092 550.484 63.8909 547.98 66.2884C545.475 68.6502 541.95 69.8311 537.405 69.8311C532.36 69.8311 528.513 67.9703 525.865 64.2487V67.684C525.865 68.3281 525.686 68.847 525.328 69.2406C525.006 69.6343 524.523 69.8311 523.879 69.8311ZM537.137 66.4494C540.644 66.4494 543.292 65.5906 545.081 63.873C546.87 62.1195 547.765 59.543 547.765 56.1435C547.765 52.9229 546.817 50.4001 544.92 48.5751C543.023 46.75 540.429 45.8375 537.137 45.8375C534.99 45.8375 533.057 46.2848 531.34 47.1795C529.622 48.0383 528.28 49.255 527.314 50.8295C526.348 52.404 525.865 54.1753 525.865 56.1435C525.865 59.3283 526.867 61.8511 528.871 63.7119C530.875 65.5369 533.63 66.4494 537.137 66.4494Z" fill="#40277A"/>
<path d="M560.862 69.8311C560.253 69.8311 559.77 69.6522 559.412 69.2943C559.09 68.9007 558.929 68.3639 558.929 67.684V30.7007C558.929 30.0208 559.09 29.5019 559.412 29.144C559.77 28.7504 560.253 28.5536 560.862 28.5536C561.47 28.5536 561.953 28.7504 562.311 29.144C562.669 29.5019 562.848 30.0208 562.848 30.7007V67.684C562.848 68.3281 562.669 68.847 562.311 69.2406C561.989 69.6343 561.506 69.8311 560.862 69.8311Z" fill="#40277A"/>
<path d="M584.849 69.8311C581.736 69.8311 579.07 69.2049 576.851 67.9524C574.632 66.6999 572.95 65.036 571.805 62.9605C570.696 60.8492 570.141 58.5768 570.141 56.1435C570.141 53.7101 570.696 51.4557 571.805 49.3802C572.95 47.2689 574.632 45.587 576.851 44.3346C579.07 43.0821 581.736 42.4559 584.849 42.4559C587.962 42.4559 590.61 43.0821 592.793 44.3346C595.012 45.587 596.676 47.2689 597.785 49.3802C598.93 51.4557 599.503 53.7101 599.503 56.1435C599.503 58.5768 598.93 60.8492 597.785 62.9605C596.676 65.036 595.012 66.6999 592.793 67.9524C590.61 69.2049 587.962 69.8311 584.849 69.8311ZM584.849 66.4494C588.069 66.4494 590.646 65.5369 592.578 63.7119C594.546 61.8869 595.531 59.3641 595.531 56.1435C595.531 52.9229 594.546 50.4001 592.578 48.5751C590.646 46.75 588.069 45.8375 584.849 45.8375C581.592 45.8375 578.98 46.75 577.012 48.5751C575.08 50.4001 574.113 52.9229 574.113 56.1435C574.113 59.3641 575.08 61.8869 577.012 63.7119C578.98 65.5369 581.592 66.4494 584.849 66.4494Z" fill="#40277A"/>
<path d="M619.563 82.7672C616.986 82.7672 614.66 82.3915 612.585 81.64C610.509 80.8885 608.827 79.7971 607.539 78.3657C607.253 78.0794 607.11 77.7216 607.11 77.2922C607.11 76.7554 607.396 76.2902 607.968 75.8966C608.326 75.6461 608.666 75.5208 608.988 75.5208C609.525 75.5208 610.062 75.8071 610.599 76.3797C611.457 77.3101 612.603 78.0615 614.034 78.6341C615.465 79.2066 617.183 79.4929 619.187 79.4929C622.694 79.4929 625.378 78.652 627.238 76.9701C629.099 75.2882 630.03 72.8549 630.03 69.6701V64.6244C628.813 66.2347 627.221 67.5588 625.252 68.5965C623.284 69.5985 620.994 70.0995 618.382 70.0995C613.837 70.0995 610.33 68.8828 607.861 66.4494C605.392 64.0161 604.157 60.7597 604.157 56.6803C604.157 53.9249 604.694 51.4915 605.768 49.3802C606.877 47.2331 608.523 45.5513 610.706 44.3346C612.889 43.0821 615.573 42.4559 618.758 42.4559C621.119 42.4559 623.248 42.939 625.145 43.9052C627.042 44.8714 628.67 46.2491 630.03 48.0383V44.4956C630.03 43.9231 630.209 43.44 630.566 43.0463C630.96 42.6527 631.443 42.4559 632.016 42.4559C632.588 42.4559 633.053 42.6527 633.411 43.0463C633.769 43.4042 633.948 43.8873 633.948 44.4956V69.6701C633.948 72.3539 633.34 74.6799 632.123 76.648C630.942 78.6162 629.26 80.1192 627.077 81.1569C624.895 82.2304 622.39 82.7672 619.563 82.7672ZM618.758 66.6105C620.69 66.6105 622.497 66.2347 624.179 65.4833C625.897 64.7318 627.292 63.5867 628.366 62.0479C629.439 60.4734 629.976 58.559 629.976 56.3045C629.976 54.3006 629.547 52.5114 628.688 50.9368C627.829 49.3623 626.576 48.1277 624.93 47.2331C623.284 46.3027 621.316 45.8375 619.026 45.8375C615.555 45.8375 612.871 46.7858 610.974 48.6824C609.078 50.5432 608.13 53.2092 608.13 56.6803C608.13 59.7577 609.024 62.1911 610.813 63.9803C612.638 65.7338 615.286 66.6105 618.758 66.6105Z" fill="#40277A"/>
<path d="M411.929 64.5387L411.989 64.4156C413.057 62.1515 415.73 61.0671 418.083 61.9807C421.408 63.2716 425.31 64.0621 428.941 64.0621C434.664 64.0621 436.812 62.5725 436.812 60.2211C436.812 53.3255 410.97 60.376 410.97 43.5303C410.97 35.5384 418.285 29.894 430.767 29.894C434.543 29.894 438.586 30.4422 442.068 31.459C444.913 32.2892 446.364 35.3954 445.103 38.0408C444.051 40.2573 441.467 41.3059 439.126 40.4996C436.26 39.5105 433.439 39.1411 430.767 39.1411C425.201 39.1411 422.815 40.865 422.815 43.0576C422.815 50.267 448.658 43.2919 448.658 59.9073C448.658 67.7442 441.262 73.3091 428.461 73.3091C423.528 73.3091 418.563 72.3995 414.637 71.0013C411.985 70.056 410.736 67.061 411.925 64.5387H411.929Z" fill="#40277A"/>
<path d="M493.699 59.363L494.945 60.3322C497.004 61.9329 497.125 64.9756 495.195 66.7273C491.926 69.6865 487.46 71.6566 481.874 72.5305C467.147 74.8343 456.092 67.2039 454.081 54.7196C452.058 42.1558 460.26 31.59 473.402 29.5325C484.196 27.8443 494.28 32.6982 497.863 43.3872C498.58 45.5242 497.395 47.832 495.251 48.5986L469.703 57.7503C468.973 58.0125 468.715 58.9181 469.227 59.498C471.79 62.4175 475.72 63.494 480.621 62.7273C483.825 62.2269 486.283 61.1544 488.331 59.4345C489.862 58.1475 492.119 58.1356 493.699 59.3669V59.363ZM467.385 51.0732L484.885 44.7814C485.55 44.5431 485.84 43.7605 485.469 43.1687C483.374 39.8083 479.521 38.0129 474.89 38.7398C469.159 39.6375 465.628 43.7685 465.87 50.0603C465.898 50.815 466.664 51.3314 467.385 51.0732V51.0732Z" fill="#40277A"/>
<path d="M134.565 52.4041C134.887 63.6492 144.439 72.8009 155.865 72.8009C156.486 72.7969 157.074 72.7731 157.618 72.7294C159.718 72.5586 161.782 72.0303 163.716 71.1803C166.376 70.0125 167.033 66.5766 164.99 64.527H164.986C163.785 63.3155 161.939 62.9382 160.375 63.6333C159.291 64.1179 158.134 64.4158 156.937 64.5111C156.546 64.5469 156.224 64.5627 155.845 64.5548C149.042 64.5548 143.125 58.8866 142.936 52.1738C142.835 48.6942 144.133 45.4053 146.591 42.9108C149.046 40.4203 152.339 39.0499 155.869 39.0499C157.199 39.0499 158.513 39.2485 159.763 39.6378C161.467 40.1661 163.325 39.5067 164.357 38.0688C166.002 35.7809 164.897 32.5754 162.181 31.7412C160.154 31.1216 158.03 30.8038 155.869 30.8038C150.066 30.8038 144.637 33.064 140.594 37.1632C136.548 41.2664 134.412 46.6764 134.573 52.4041H134.565Z" fill="#40277A"/>
<path d="M192.118 30.8395C179.298 30.0292 168.682 40.4917 169.496 53.1389C170.169 63.5895 178.734 72.0302 189.337 72.6936C202.17 73.4999 212.794 63.0334 211.968 50.3942C211.287 39.9476 202.722 31.5068 192.122 30.8356L192.118 30.8395ZM189.882 64.4674C183.461 64.0662 178.25 58.9302 177.843 52.5987C177.339 44.7419 184.102 38.2713 192.126 39.1134C198.116 39.741 202.928 44.4837 203.565 50.3862C204.423 58.2987 197.854 64.9678 189.878 64.4674H189.882Z" fill="#40277A"/>
<path d="M258.24 51.1806C257.922 39.9395 248.366 30.7917 236.936 30.7917C236.287 30.7917 235.703 30.8156 235.199 30.8553C225.486 31.6378 217.655 40.007 217.373 49.9095V49.9492C217.369 50.0962 217.356 50.4298 217.356 50.5053L217.365 84.1172C217.365 86.3933 219.239 88.2403 221.548 88.2403C223.857 88.2403 225.731 86.3933 225.731 84.1172V69.6906L227.336 70.4969C230.314 71.9944 233.635 72.7888 236.936 72.7888C242.748 72.7888 248.177 70.5247 252.231 66.4175C256.278 62.3144 258.41 56.9044 258.244 51.1806H258.24ZM246.214 60.6739C243.759 63.1684 240.466 64.5427 236.936 64.5427C233.405 64.5427 230.004 63.1207 227.537 60.5388C226.413 59.3512 225.756 57.6392 225.731 55.8398V50.4179C225.78 44.5154 230.237 39.5343 235.876 39.0776H235.973C236.279 39.0537 236.581 39.0378 236.932 39.0378C243.755 39.0378 249.68 44.706 249.873 51.4149C249.97 54.9104 248.668 58.1993 246.214 60.6779V60.6739Z" fill="#40277A"/>
<path d="M295.344 31.1375H295.34C293.03 31.1375 291.156 32.9845 291.156 35.2605V54.6444C291.156 59.963 286.775 64.2886 281.387 64.2886C275.998 64.2886 271.617 59.963 271.617 54.6444V35.2684C271.617 32.9924 269.743 31.1454 267.434 31.1454C265.124 31.1454 263.25 32.9924 263.25 35.2684V54.6444C263.25 64.5111 271.383 72.5347 281.387 72.5347C281.411 72.5347 281.435 72.5347 281.459 72.5347C285.199 72.5188 288.738 70.8625 291.241 68.1217C291.422 67.9231 291.753 68.1138 291.664 68.368L290.249 72.3282C288.012 78.5961 281.995 82.8105 275.273 82.8105C274.567 82.8105 273.866 82.7669 273.173 82.6755C271.291 82.4292 269.465 83.4183 268.723 85.1422C267.647 87.6406 269.271 90.4767 272 90.8421C273.463 91.0368 274.95 91.1003 276.453 91.0288C289.435 90.4251 299.523 79.617 299.523 66.8109V35.2605C299.523 32.9845 297.649 31.1375 295.34 31.1375H295.344Z" fill="#40277A"/>
<path d="M357.343 52.4358C357.009 64.2766 346.969 73.8772 334.935 73.8772C334.338 73.8772 333.701 73.8613 333.101 73.8097C322.743 72.9755 314.569 64.2091 314.267 53.7029C314.267 53.7029 314.251 53.1746 314.251 53.0793L314.259 19.4673C314.259 16.5915 316.625 14.2599 319.543 14.2599C322.461 14.2599 324.827 16.5915 324.827 19.4673V32.1185C327.922 30.5574 331.392 29.7074 334.931 29.7074C341.045 29.7074 346.752 32.0867 351.016 36.4083C355.26 40.7141 357.517 46.4101 357.339 52.4318L357.343 52.4358ZM346.776 52.1418C346.865 48.9483 345.684 45.9454 343.427 43.6693C341.19 41.3933 338.175 40.1262 334.935 40.1262C331.694 40.1262 328.595 41.4291 326.338 43.7885C325.407 44.7736 324.851 46.2155 324.831 47.7566V53.1627C324.875 58.5052 328.865 63.0055 333.963 63.4226C334.282 63.4385 334.58 63.4584 334.931 63.4584C341.186 63.4584 346.595 58.2827 346.768 52.1379L346.776 52.1418Z" fill="#40277A"/>
<path d="M405.734 48.0863V71.2516C405.734 72.3717 404.815 73.2773 403.678 73.2773H397.218C396.081 73.2773 395.162 72.3717 395.162 71.2516C395.162 71.2516 395.158 71.2516 395.154 71.2555C392.671 72.6617 389.87 73.5633 386.892 73.8096C386.295 73.8612 385.658 73.8771 385.062 73.8771C373.031 73.8771 362.988 64.2765 362.653 52.4357C362.476 46.41 364.733 40.718 368.977 36.4122C373.241 32.0906 378.948 29.7113 385.042 29.7113C391.136 29.7113 397.125 32.2455 401.337 36.6387C404.174 39.6098 405.722 43.5819 405.722 47.8559V48.0902H405.73L405.734 48.0863ZM395.158 47.8519C395.158 46.271 394.614 44.7974 393.659 43.7884C391.386 41.425 388.339 40.1262 385.046 40.1262C381.753 40.1262 378.811 41.3933 376.574 43.6693C374.321 45.9453 373.14 48.9482 373.225 52.1418C373.402 58.2866 378.811 63.4623 385.062 63.4623C385.397 63.4782 385.715 63.4623 386.029 63.4265C391.156 63.0094 395.154 58.4614 395.154 53.0792V47.8519H395.158Z" fill="#40277A"/>
</svg>
