<?xml version="1.0"?>
<svg width="634" height="92" xmlns="http://www.w3.org/2000/svg" xmlns:svg="http://www.w3.org/2000/svg">
 <g class="layer">
  <title>Layer 1</title>
  <path d="m490.93,63.54l0.06,-0.12c1.07,-2.27 3.74,-3.35 6.09,-2.44c3.33,1.29 7.23,2.08 10.86,2.08c5.72,0 7.87,-1.49 7.87,-3.84c0,-6.89 -25.84,0.16 -25.84,-16.69c0,-7.99 7.32,-13.64 19.8,-13.64c3.77,0 7.82,0.55 11.3,1.57c2.84,0.83 4.29,3.94 3.03,6.58c-1.05,2.22 -3.63,3.27 -5.97,2.46c-2.87,-0.99 -5.69,-1.36 -8.36,-1.36c-5.57,0 -7.96,1.73 -7.96,3.92c0,7.21 25.85,0.23 25.85,16.85c0,7.83 -7.4,13.4 -20.2,13.4c-4.93,0 -9.9,-0.91 -13.82,-2.31c-2.65,-0.94 -3.9,-3.94 -2.71,-6.46l0,0z" fill="#40277A" id="svg_5"/>
  <path d="m572.7,58.36l1.24,0.97c2.06,1.6 2.19,4.65 0.25,6.4c-3.26,2.96 -7.73,4.93 -13.32,5.8c-14.72,2.3 -25.78,-5.33 -27.79,-17.81c-2.02,-12.56 6.18,-23.13 19.32,-25.19c10.8,-1.69 20.88,3.17 24.46,13.86c0.72,2.13 -0.47,4.44 -2.61,5.21l-25.55,9.15c-0.73,0.26 -0.99,1.17 -0.47,1.75c2.56,2.92 6.49,3.99 11.39,3.23c3.2,-0.5 5.66,-1.58 7.71,-3.3c1.53,-1.28 3.79,-1.29 5.37,-0.06l0,-0.01zm-26.32,-8.29l17.5,-6.29c0.67,-0.24 0.96,-1.02 0.59,-1.61c-2.1,-3.36 -5.95,-5.16 -10.58,-4.43c-5.73,0.9 -9.26,5.03 -9.02,11.32c0.03,0.75 0.79,1.27 1.51,1.01l0,0z" fill="#40277A" id="svg_6"/>
  <path d="m213.56,51.4c0.33,11.25 9.88,20.4 21.31,20.4c0.62,0 1.2,-0.03 1.75,-0.07c2.1,-0.17 4.16,-0.7 6.1,-1.55c2.66,-1.17 3.31,-4.6 1.27,-6.65l0,0c-1.21,-1.21 -3.05,-1.59 -4.61,-0.9c-1.09,0.49 -2.25,0.79 -3.44,0.88c-0.39,0.04 -0.72,0.05 -1.1,0.04c-6.8,0 -12.71,-5.66 -12.9,-12.38c-0.1,-3.48 1.19,-6.76 3.65,-9.26c2.46,-2.49 5.75,-3.86 9.28,-3.86c1.33,0 2.64,0.2 3.89,0.59c1.71,0.53 3.56,-0.13 4.6,-1.57c1.64,-2.29 0.54,-5.49 -2.18,-6.33c-2.03,-0.62 -4.15,-0.94 -6.31,-0.94c-5.8,0 -11.23,2.26 -15.28,6.36c-4.04,4.11 -6.18,9.52 -6.02,15.24l-0.01,0z" fill="#40277A" id="svg_7"/>
  <path d="m271.12,29.84c-12.82,-0.81 -23.44,9.65 -22.62,22.3c0.67,10.45 9.23,18.89 19.84,19.55c12.83,0.81 23.45,-9.66 22.63,-22.3c-0.68,-10.44 -9.25,-18.88 -19.85,-19.55l0,0zm-2.24,33.63c-6.42,-0.4 -11.63,-5.54 -12.04,-11.87c-0.5,-7.86 6.26,-14.33 14.29,-13.49c5.99,0.63 10.8,5.37 11.43,11.28c0.86,7.91 -5.71,14.58 -13.68,14.08l0,0z" fill="#40277A" id="svg_8"/>
  <path d="m337.24,50.18c-0.32,-11.24 -9.87,-20.39 -21.3,-20.39c-0.65,0 -1.24,0.03 -1.74,0.07c-9.71,0.78 -17.54,9.15 -17.83,19.05l0,0.04c0,0.15 -0.01,0.48 -0.01,0.56l0.01,33.61c0,2.27 1.87,4.12 4.18,4.12c2.31,0 4.18,-1.85 4.18,-4.12l0,-14.43l1.61,0.81c2.97,1.49 6.29,2.29 9.6,2.29c5.81,0 11.24,-2.27 15.29,-6.37c4.05,-4.11 6.18,-9.52 6.01,-15.24l0,0zm-12.03,9.49c-2.45,2.5 -5.74,3.87 -9.27,3.87c-3.53,0 -6.94,-1.42 -9.4,-4c-1.13,-1.19 -1.78,-2.9 -1.81,-4.7l0,-5.42c0.05,-5.9 4.51,-10.89 10.15,-11.34l0.09,0c0.31,-0.03 0.61,-0.04 0.96,-0.04c6.82,0 12.75,5.67 12.94,12.37c0.1,3.5 -1.2,6.79 -3.66,9.27l0,-0.01z" fill="#40277A" id="svg_9"/>
  <path d="m374.34,30.14l0,0c-2.31,0 -4.18,1.84 -4.18,4.12l0,19.38c0,5.32 -4.39,9.65 -9.77,9.65c-5.39,0 -9.77,-4.33 -9.77,-9.65l0,-19.37c0,-2.28 -1.88,-4.12 -4.19,-4.12c-2.31,0 -4.18,1.84 -4.18,4.12l0,19.37c0,9.87 8.13,17.89 18.14,17.89c0.02,0 0.05,0 0.07,0c3.74,-0.01 7.28,-1.67 9.78,-4.41c0.18,-0.2 0.51,-0.01 0.42,0.25l-1.41,3.96c-2.24,6.27 -8.25,10.48 -14.98,10.48c-0.7,0 -1.4,-0.04 -2.1,-0.13c-1.88,-0.25 -3.71,0.74 -4.45,2.46c-1.07,2.5 0.55,5.34 3.28,5.7c1.46,0.2 2.95,0.26 4.45,0.19c12.99,-0.6 23.07,-11.41 23.07,-24.22l0,-31.55c0,-2.28 -1.87,-4.12 -4.18,-4.12l0,0z" fill="#40277A" id="svg_10"/>
  <path d="m436.34,51.44c-0.33,11.84 -10.37,21.44 -22.4,21.44c-0.6,0 -1.24,-0.02 -1.84,-0.07c-10.36,-0.83 -18.53,-9.6 -18.83,-20.11c0,0 -0.02,-0.53 -0.02,-0.62l0.01,-33.61c0,-2.88 2.37,-5.21 5.28,-5.21c2.92,0 5.29,2.33 5.29,5.21l0,12.65c3.09,-1.56 6.56,-2.41 10.1,-2.41c6.12,0 11.82,2.38 16.09,6.7c4.24,4.3 6.5,10 6.32,16.02l0,0.01zm-10.56,-0.3c0.09,-3.19 -1.1,-6.19 -3.35,-8.47c-2.24,-2.28 -5.25,-3.54 -8.49,-3.54c-3.25,0 -6.34,1.3 -8.6,3.66c-0.93,0.98 -1.49,2.43 -1.51,3.97l0,5.4c0.05,5.35 4.04,9.85 9.13,10.26c0.32,0.02 0.62,0.04 0.97,0.04c6.26,0 11.67,-5.18 11.84,-11.32l0.01,0z" fill="#40277A" id="svg_11"/>
  <path d="m484.73,47.09l0,23.16c0,1.12 -0.92,2.03 -2.05,2.03l-6.46,0c-1.14,0 -2.06,-0.91 -2.06,-2.03c0,0 0,0 -0.01,0.01c-2.48,1.4 -5.28,2.3 -8.26,2.55c-0.59,0.05 -1.23,0.07 -1.83,0.07c-12.03,0 -22.07,-9.6 -22.41,-21.44c-0.17,-6.03 2.08,-11.72 6.33,-16.03c4.26,-4.32 9.97,-6.7 16.06,-6.7c6.1,0 12.09,2.54 16.3,6.93c2.83,2.97 4.38,6.94 4.38,11.22l0,0.23l0.01,0l0,0zm-10.57,-0.24c0,-1.58 -0.55,-3.05 -1.5,-4.06c-2.27,-2.37 -5.32,-3.66 -8.61,-3.66c-3.3,0 -6.24,1.26 -8.48,3.54c-2.25,2.28 -3.43,5.28 -3.34,8.47c0.17,6.15 5.58,11.32 11.83,11.32c0.34,0.02 0.65,0 0.97,-0.03c5.13,-0.42 9.12,-4.97 9.12,-10.35l0,-5.23l0.01,0z" fill="#40277A" id="svg_12"/>
  <path d="m113.94,76.56l-0.91,0c-10.89,0 -20.32,-8.03 -21.28,-18.71c-1.09,-12.22 8.64,-22.47 20.81,-22.47l18.66,0c2.75,0 5.18,-1.75 6.01,-4.33c1.29,-4 -1.74,-8.09 -6.01,-8.09l-18.66,0c-18.49,0 -33.49,14.78 -33.49,33.01c0,18.23 15,33.01 33.49,33.01l1.38,0c2.74,0 5.17,-1.75 6.01,-4.33c1.28,-4.01 -1.75,-8.09 -6.01,-8.09l0,0z" fill="#40277A" id="svg_13"/>
  <path d="m162.17,22.96l-2.86,0l4.25,-13.44c1.23,-3.88 -1.71,-7.81 -5.83,-7.81l-0.03,0c-2.68,0 -5.04,1.71 -5.83,4.23l-6.84,21.65c-1.19,3.75 1.54,7.55 5.45,7.78l0.1,0.01c0.1,0 0.19,0.01 0.28,0.01l0.03,0c0.07,0 0.13,-0.01 0.21,-0.01l10.6,0c10.89,0 20.32,8.03 21.27,18.72c1.1,12.21 -8.64,22.46 -20.8,22.46l-28.87,0c-2.75,0 -5.18,1.75 -6.01,4.33c-1.29,4 1.74,8.09 6.01,8.09l28.87,0c18.5,0 33.49,-14.78 33.49,-33.01c0,-18.23 -15,-33 -33.49,-33l0,-0.01z" fill="#40277A" id="svg_14"/>
  <path d="m119.52,65.06c4.64,0 8.4,-3.71 8.4,-8.28c0,-4.58 -3.76,-8.29 -8.4,-8.29c-4.65,0 -8.41,3.71 -8.41,8.29c0,4.57 3.76,8.28 8.41,8.28z" fill="#AFB1B3" id="svg_15"/>
  <path d="m155.22,65.06c4.64,0 8.4,-3.71 8.4,-8.28c0,-4.58 -3.76,-8.29 -8.4,-8.29c-4.64,0 -8.41,3.71 -8.41,8.29c0,4.57 3.77,8.28 8.41,8.28z" fill="#AFB1B3" id="svg_16"/>
 </g>
</svg>